G04 DipTrace 2.2.0.9*
%INBottomMask.gbr*%
%MOIN*%
%ADD56C,0.0591*%
%ADD104C,0.0866*%
%ADD105C,0.0709*%
%ADD123R,0.0669X0.0669*%
%ADD139C,0.0669*%
%ADD143R,0.0679X0.0679*%
%ADD151C,0.2441*%
%ADD159C,0.063*%
%ADD169C,0.2067*%
%ADD171C,0.0669*%
%ADD174C,0.189*%
%ADD176C,0.0679*%
%ADD182C,0.0787*%
%ADD189C,0.0679*%
%ADD206C,0.0906*%
%ADD208C,0.1063*%
%ADD211R,0.0709X0.0709*%
%FSLAX44Y44*%
%SFA1B1*%
%OFA0B0*%
G04*
G70*
G90*
G75*
G01*
%LNBotMask*%
%LPD*%
D211*
X38083Y48819D3*
D105*
X39083D3*
D211*
X29421D3*
D105*
X30421D3*
D211*
X20760D3*
D105*
X21760D3*
G36*
X25504Y56612D2*
X25913D1*
X26203Y56323D1*
Y55913D1*
X25913Y55624D1*
X25504D1*
X25215Y55913D1*
Y56323D1*
X25504Y56612D1*
G37*
D208*
X21535Y56118D3*
G36*
X24432Y55539D2*
X24781D1*
X25028Y55293D1*
Y54944D1*
X24781Y54697D1*
X24432D1*
X24185Y54944D1*
Y55293D1*
X24432Y55539D1*
G37*
D206*
X22638Y55118D3*
D56*
X5799Y48069D3*
G36*
X7075Y48683D2*
Y48455D1*
X6913Y48293D1*
X6685D1*
X6523Y48455D1*
Y48683D1*
X6685Y48845D1*
X6913D1*
X7075Y48683D1*
G37*
D56*
X5799Y49069D3*
X6799Y49569D3*
G36*
X25513Y12592D2*
Y12330D1*
X25328Y12144D1*
X25066D1*
X24880Y12330D1*
Y12592D1*
X25066Y12777D1*
X25328D1*
X25513Y12592D1*
G37*
D189*
X25197Y13461D3*
Y14461D3*
Y15461D3*
Y16461D3*
Y17461D3*
G36*
X24828Y25306D2*
X24566D1*
X24380Y25491D1*
Y25753D1*
X24566Y25939D1*
X24828D1*
X25013Y25753D1*
Y25491D1*
X24828Y25306D1*
G37*
D189*
X25697Y25622D3*
X24697Y24622D3*
X25697D3*
X24697Y23622D3*
X25697D3*
X24697Y22622D3*
X25697D3*
X24697Y21622D3*
X25697D3*
D182*
X14961Y24409D3*
Y15591D3*
G36*
X41190Y13542D2*
Y13804D1*
X41376Y13990D1*
X41638D1*
X41823Y13804D1*
Y13542D1*
X41638Y13357D1*
X41376D1*
X41190Y13542D1*
G37*
D176*
X41507Y14673D3*
G36*
X41190Y17479D2*
Y17741D1*
X41376Y17927D1*
X41638D1*
X41823Y17741D1*
Y17479D1*
X41638Y17294D1*
X41376D1*
X41190Y17479D1*
G37*
D176*
X41507Y18610D3*
D104*
X42157Y39488D3*
X43276Y40028D3*
X42157Y40567D3*
X43276Y41106D3*
X42157Y41646D3*
X43276Y42185D3*
X42157Y42724D3*
X43276Y43264D3*
X42157Y43803D3*
D174*
X42717Y46567D3*
Y36724D3*
D171*
X45354Y44776D3*
D169*
Y46567D3*
D171*
Y38516D3*
D169*
Y36724D3*
D104*
X42157Y25488D3*
X43276Y26028D3*
X42157Y26567D3*
X43276Y27106D3*
X42157Y27646D3*
X43276Y28185D3*
X42157Y28724D3*
X43276Y29264D3*
X42157Y29803D3*
D174*
X42717Y32567D3*
Y22724D3*
D171*
X45354Y30776D3*
D169*
Y32567D3*
D171*
Y24516D3*
D169*
Y22724D3*
G36*
X41190Y50550D2*
Y50812D1*
X41376Y50998D1*
X41638D1*
X41823Y50812D1*
Y50550D1*
X41638Y50365D1*
X41376D1*
X41190Y50550D1*
G37*
D176*
X41507Y51681D3*
G36*
X9204Y37064D2*
Y36802D1*
X9018Y36617D1*
X8756D1*
X8570Y36802D1*
Y37064D1*
X8756Y37250D1*
X9018D1*
X9204Y37064D1*
G37*
D176*
X8887Y35933D3*
Y34933D3*
Y33933D3*
D159*
X4232Y41880D3*
Y40010D3*
G36*
X27503Y9204D2*
X27765D1*
X27950Y9018D1*
Y8756D1*
X27765Y8570D1*
X27503D1*
X27317Y8756D1*
Y9018D1*
X27503Y9204D1*
G37*
D176*
X28634Y8887D3*
X29634D3*
X30634D3*
D159*
X20394Y5424D3*
X22126D3*
D151*
X43110Y8661D3*
X7283Y60630D3*
X43110D3*
X7283Y8661D3*
D189*
X33209Y59055D3*
D143*
X28209D3*
D182*
X5807Y56102D3*
Y58858D3*
D139*
X4823Y56594D3*
Y58366D3*
D182*
X5807Y51378D3*
Y54134D3*
D139*
X4823Y51870D3*
Y53642D3*
D182*
X5807Y27756D3*
Y30512D3*
D139*
X4823Y28248D3*
Y30020D3*
D123*
X34720Y44020D3*
D139*
Y43020D3*
Y42020D3*
Y41020D3*
X37720D3*
Y42020D3*
Y43020D3*
Y44020D3*
D123*
X44957Y34646D3*
D139*
X45957D3*
M02*
