M48
INCH
T01C0.02
T02C0.0354
T03C0.036
T04C0.038
T05C0.0394
T06C0.0433
T07C0.0472
T08C0.0512
T09C0.0591
T10C0.1201
T11C0.122
T12C0.126
%
T01
X+018110Y+018504
X+018898Y+018504
X+019685Y+018504
X+019685Y+020866
X+018898Y+020866
X+018110Y+020866
X+017323Y+023228
X+018898Y+023228
X+022047Y+021260
X+022047Y+020472
X+022047Y+019685
X+020866Y+013386
X+021850Y+011220
X+021850Y+010827
X+021850Y+010433
X+021850Y+009252
X+022047Y+007874
X+022047Y+007480
X+023228Y+006693
X+023228Y+005906
X+023228Y+005118
X+024016Y+004724
X+020472Y+007480
X+020472Y+007874
X+019291Y+006693
X+019291Y+005906
X+019291Y+005118
X+018504Y+004724
X+018504Y+008661
X+018504Y+010236
X+020669Y+010433
X+023228Y+009646
X+026378Y+008661
X+031102Y+011811
X+033071Y+011024
X+033071Y+010236
X+033071Y+014961
X+033071Y+015748
X+033071Y+016929
X+034252Y+019291
X+037402Y+018110
X+037008Y+025197
X+036220Y+025984
X+035433Y+025197
X+036220Y+027559
X+036220Y+029134
X+035039Y+029921
X+037402Y+029921
X+032677Y+029134
X+032283Y+031496
X+031496Y+031496
X+030709Y+032874
X+030709Y+033661
X+030709Y+034843
X+030709Y+035630
X+028543Y+036614
X+028150Y+036220
X+026575Y+035236
X+026181Y+035433
X+026575Y+034449
X+026181Y+034252
X+028346Y+032677
X+028740Y+033071
X+029134Y+028740
X+029134Y+025591
X+029528Y+022835
X+025591Y+027953
X+024803Y+027953
X+024016Y+027953
X+024803Y+029134
X+025591Y+029134
X+024705Y+031004
X+021850Y+036024
X+021457Y+036417
X+021063Y+036811
X+022441Y+037008
X+022441Y+040551
X+023228Y+040551
X+021260Y+041339
X+020472Y+040945
X+018504Y+040551
X+018110Y+040945
X+017717Y+041339
X+015748Y+042520
X+016929Y+043701
X+017717Y+046457
X+015748Y+047244
X+018110Y+048819
X+018898Y+049606
X+022441Y+047244
X+022441Y+046457
X+023622Y+046063
X+024409Y+045276
X+024803Y+044882
X+025197Y+044488
X+025000Y+042913
X+025787Y+042913
X+023622Y+043307
X+022835Y+044094
X+021654Y+043701
X+021260Y+044094
X+025984Y+046457
X+026772Y+046457
X+026772Y+048031
X+026378Y+048031
X+025984Y+048031
X+029528Y+044882
X+031496Y+045669
X+032283Y+045669
X+031299Y+046457
X+031299Y+047244
X+034646Y+048031
X+035039Y+048031
X+035433Y+048031
X+036614Y+051181
X+036614Y+051969
X+036614Y+052756
X+037795Y+051969
X+039370Y+051969
X+040945Y+055512
X+040945Y+055906
X+040945Y+056299
X+043701Y+057480
X+044488Y+053543
X+044882Y+053543
X+045276Y+053543
X+038583Y+058268
X+037795Y+058268
X+037008Y+058268
X+037008Y+057480
X+037008Y+056693
X+035433Y+056299
X+035433Y+055906
X+035433Y+054331
X+035433Y+053937
X+039764Y+047244
X+039764Y+046457
X+039764Y+044882
X+038583Y+040157
X+038583Y+039370
X+036220Y+040551
X+033465Y+038583
X+029921Y+040157
X+029528Y+039764
X+029134Y+039370
X+028740Y+040157
X+026969Y+038583
X+018898Y+039370
X+015945Y+037795
X+014961Y+038189
X+013976Y+037795
X+013976Y+036220
X+015945Y+036220
X+017323Y+035039
X+017323Y+034252
X+016142Y+033465
X+014567Y+033858
X+018898Y+035039
X+015354Y+040157
X+013386Y+040551
X+012992Y+040945
X+012598Y+041339
X+009843Y+040551
X+009449Y+040945
X+009055Y+041339
X+007087Y+041634
X+005906Y+042126
X+004724Y+042520
X+005906Y+039764
X+004724Y+039370
X+004724Y+047244
X+012598Y+062205
X+013386Y+062205
X+014173Y+062205
X+011024Y+031102
X+007087Y+029921
X+007874Y+027559
X+006693Y+022441
X+006693Y+018504
X+011811Y+018898
X+014173Y+018898
X+014173Y+019685
X+014173Y+022047
X+014173Y+022835
X+016142Y+013386
X+016142Y+011811
X+016142Y+010236
X+016142Y+008661
X+004724Y+012598
X+027559Y+014961
X+027559Y+015748
X+038583Y+035433
X+038583Y+036220
X+041732Y+034646
X+042520Y+034646
X+043307Y+034646
T02
X+038083Y+048819
X+039083Y+048819
X+037720Y+044020
X+037720Y+043020
X+037720Y+042020
X+037720Y+041020
X+034720Y+041020
X+034720Y+042020
X+034720Y+043020
X+034720Y+044020
X+030421Y+048819
X+029421Y+048819
X+021760Y+048819
X+020760Y+048819
X+006799Y+048569
X+006799Y+049569
X+005799Y+049069
X+005799Y+048069
X+004232Y+041880
X+004232Y+040010
X+020394Y+005424
X+022126Y+005424
X+044957Y+034646
X+045957Y+034646
T03
X+025197Y+012461
X+025197Y+013461
X+025197Y+014461
X+025197Y+015461
X+025197Y+016461
X+025197Y+017461
X+024697Y+021622
X+025697Y+021622
X+025697Y+022622
X+024697Y+022622
X+024697Y+023622
X+025697Y+023622
X+025697Y+024622
X+024697Y+024622
X+024697Y+025622
X+025697Y+025622
X+027634Y+008887
X+028634Y+008887
X+029634Y+008887
X+030634Y+008887
X+041507Y+013673
X+041507Y+014673
X+041507Y+017610
X+041507Y+018610
X+041507Y+050681
X+041507Y+051681
X+008887Y+036933
X+008887Y+035933
X+008887Y+034933
X+008887Y+033933
T04
X+033209Y+059055
X+028209Y+059055
T05
X+025197Y+034646
X+004823Y+030020
X+004823Y+028248
X+004823Y+051870
X+004823Y+053642
X+004823Y+056594
X+004823Y+058366
T06
X+024606Y+055118
X+022638Y+055118
T07
X+042157Y+039488
X+042157Y+040567
X+042157Y+041646
X+042157Y+042724
X+042157Y+043803
X+043276Y+043264
X+043276Y+042185
X+043276Y+041106
X+043276Y+040028
X+042157Y+029803
X+042157Y+028724
X+042157Y+027646
X+042157Y+026567
X+042157Y+025488
X+043276Y+026028
X+043276Y+027106
X+043276Y+028185
X+043276Y+029264
T08
X+014961Y+024409
X+014961Y+015591
X+005807Y+027756
X+005807Y+030512
X+005807Y+051378
X+005807Y+054134
X+005807Y+056102
X+005807Y+058858
T09
X+025709Y+056118
X+021535Y+056118
X+045354Y+044776
X+045354Y+038516
X+045354Y+030776
X+045354Y+024516
T10
X+045354Y+046567
X+045354Y+036724
X+045354Y+032567
X+045354Y+022724
T11
X+042717Y+046567
X+042717Y+036724
X+042717Y+032567
X+042717Y+022724
T12
X+043110Y+008661
X+007283Y+008661
X+007283Y+060630
X+043110Y+060630
T00
M30
