G04 DipTrace 2.2.0.9*
%INTopMask.gbr*%
%MOIN*%
%ADD49R,0.0551X0.0709*%
%ADD56C,0.0591*%
%ADD78R,0.0787X0.0236*%
%ADD83R,0.0433X0.0236*%
%ADD92R,0.0433X0.063*%
%ADD104C,0.0866*%
%ADD105C,0.0709*%
%ADD106R,0.0827X0.0669*%
%ADD108R,0.0512X0.0709*%
%ADD109R,0.065X0.0217*%
%ADD111R,0.0768X0.0512*%
%ADD113R,0.2441X0.2441*%
%ADD115R,0.0677X0.0748*%
%ADD117R,0.0669X0.0945*%
%ADD119R,0.063X0.0236*%
%ADD121R,0.0394X0.0433*%
%ADD123R,0.0669X0.0669*%
%ADD125R,0.0512X0.0315*%
%ADD127R,0.0374X0.0213*%
%ADD129R,0.0213X0.0374*%
%ADD131R,0.0866X0.0315*%
%ADD132R,0.1677X0.1571*%
%ADD135R,0.0669X0.0197*%
%ADD137R,0.0197X0.0669*%
%ADD139C,0.0669*%
%ADD141R,0.1063X0.0551*%
%ADD143R,0.0679X0.0679*%
%ADD145R,0.0492X0.0335*%
%ADD147R,0.0335X0.0492*%
%ADD149R,0.3031X0.1181*%
%ADD151C,0.2441*%
%ADD153R,0.0886X0.1614*%
%ADD155R,0.0886X0.1457*%
%ADD157R,0.0276X0.0965*%
%ADD159C,0.063*%
%ADD161R,0.0827X0.0551*%
%ADD163R,0.0827X0.0709*%
%ADD165R,0.0787X0.0827*%
%ADD167O,0.1024X0.0207*%
%ADD169C,0.2067*%
%ADD171C,0.0669*%
%ADD172R,0.1535X0.0394*%
%ADD174C,0.189*%
%ADD176C,0.0679*%
%ADD178R,0.0669X0.0472*%
%ADD180R,0.063X0.0787*%
%ADD181R,0.0787X0.0394*%
%ADD182C,0.0787*%
%ADD183R,0.0472X0.126*%
%ADD185R,0.0866X0.126*%
%ADD187R,0.126X0.0512*%
%ADD189C,0.0679*%
%ADD191R,0.0394X0.0276*%
%ADD193R,0.063X0.0433*%
%ADD195R,0.063X0.0945*%
%ADD197R,0.0276X0.0394*%
%ADD199R,0.0276X0.0276*%
%ADD201R,0.1024X0.1024*%
%ADD204R,0.0945X0.063*%
%ADD206C,0.0906*%
%ADD208C,0.1063*%
%ADD211R,0.0709X0.0709*%
%ADD213R,0.0709X0.0787*%
%ADD215R,0.0591X0.0669*%
%ADD217R,0.0669X0.0591*%
%ADD219R,0.0787X0.0709*%
%FSLAX44Y44*%
%SFA1B1*%
%OFA0B0*%
G04*
G70*
G90*
G75*
G01*
%LNTopMask*%
%LPD*%
D219*
X19685Y34094D3*
Y35197D3*
D217*
X18110Y34272D3*
Y35020D3*
D215*
X29547Y11811D3*
X30295D3*
X14587Y39370D3*
X15335D3*
D217*
X29921Y35610D3*
Y34862D3*
D215*
X25571Y29921D3*
X24823D3*
D217*
X29921Y32894D3*
Y33642D3*
D215*
X19272Y46457D3*
X18524D3*
D217*
X26969Y39390D3*
Y40138D3*
G36*
X20550Y40394D2*
X21023Y40867D1*
X21441Y40450D1*
X20968Y39977D1*
X20550Y40394D1*
G37*
G36*
X21079Y39865D2*
X21552Y40338D1*
X21970Y39921D1*
X21496Y39448D1*
X21079Y39865D1*
G37*
G36*
X19866Y38875D2*
X19393Y38402D1*
X18975Y38819D1*
X19448Y39293D1*
X19866Y38875D1*
G37*
G36*
X20395Y38346D2*
X19922Y37873D1*
X19504Y38290D1*
X19977Y38764D1*
X20395Y38346D1*
G37*
D217*
X25787Y42106D3*
Y41358D3*
X25000Y42106D3*
Y41358D3*
X15748Y46437D3*
Y45689D3*
Y43327D3*
Y44075D3*
X18110Y20059D3*
Y19311D3*
X18898Y20059D3*
Y19311D3*
X19685Y20059D3*
Y19311D3*
D215*
X15335Y34646D3*
X14587D3*
X36594Y29921D3*
X35846D3*
D217*
X29921Y24823D3*
Y25571D3*
D215*
X39744Y11024D3*
X38996D3*
X31083Y22835D3*
X30335D3*
D217*
X28346Y27972D3*
Y28721D3*
X33071Y54705D3*
Y53957D3*
D219*
X39370Y54094D3*
Y52992D3*
D217*
X37795Y53917D3*
Y53169D3*
D213*
X34882Y57480D3*
X35984D3*
D215*
X35059Y59055D3*
X35807D3*
D211*
X38083Y48819D3*
D105*
X39083D3*
D211*
X29421D3*
D105*
X30421D3*
D211*
X20760D3*
D105*
X21760D3*
D213*
X38031Y46457D3*
X39134D3*
D215*
X38209Y47244D3*
X38957D3*
D213*
X29370Y46457D3*
X30472D3*
D215*
X29547Y47244D3*
X30295D3*
D213*
X20709Y46457D3*
X21811D3*
D215*
X20886Y47244D3*
X21634D3*
G36*
X25504Y56612D2*
X25913D1*
X26203Y56323D1*
Y55913D1*
X25913Y55624D1*
X25504D1*
X25215Y55913D1*
Y56323D1*
X25504Y56612D1*
G37*
D208*
X21535Y56118D3*
G36*
X24432Y55539D2*
X24781D1*
X25028Y55293D1*
Y54944D1*
X24781Y54697D1*
X24432D1*
X24185Y54944D1*
Y55293D1*
X24432Y55539D1*
G37*
D206*
X22638Y55118D3*
D213*
X17874Y10236D3*
X16772D3*
D215*
X17697Y8661D3*
X16949D3*
D217*
X24409Y9075D3*
Y9823D3*
D204*
X42362Y54331D3*
D92*
X41358D3*
D201*
X33780Y51969D3*
X35512D3*
D204*
X42362Y55906D3*
D92*
X41358D3*
D215*
X45256Y59055D3*
X44508D3*
D204*
X31339Y60630D3*
D92*
X30335D3*
D56*
X5799Y48069D3*
G36*
X7075Y48683D2*
Y48455D1*
X6913Y48293D1*
X6685D1*
X6523Y48455D1*
Y48683D1*
X6685Y48845D1*
X6913D1*
X7075Y48683D1*
G37*
D56*
X5799Y49069D3*
X6799Y49569D3*
D199*
X4823Y45827D3*
Y45512D3*
D197*
X4724Y46220D3*
Y45118D3*
D199*
X4823Y11181D3*
Y10866D3*
D197*
X4724Y11575D3*
Y10472D3*
D199*
X4823Y48976D3*
Y48661D3*
D197*
X4724Y49370D3*
Y48268D3*
D204*
X31339Y44882D3*
D92*
X30335D3*
D195*
X33071Y13228D3*
D193*
Y12224D3*
D199*
X25039Y4823D3*
X25354D3*
D191*
X24646Y4724D3*
X25748D3*
D215*
X17756D3*
X17007D3*
D213*
X42283Y57480D3*
X41181D3*
G36*
X25513Y12592D2*
Y12330D1*
X25328Y12144D1*
X25066D1*
X24880Y12330D1*
Y12592D1*
X25066Y12777D1*
X25328D1*
X25513Y12592D1*
G37*
D189*
X25197Y13461D3*
Y14461D3*
Y15461D3*
Y16461D3*
Y17461D3*
G36*
X24828Y25306D2*
X24566D1*
X24380Y25491D1*
Y25753D1*
X24566Y25939D1*
X24828D1*
X25013Y25753D1*
Y25491D1*
X24828Y25306D1*
G37*
D189*
X25697Y25622D3*
X24697Y24622D3*
X25697D3*
X24697Y23622D3*
X25697D3*
X24697Y22622D3*
X25697D3*
X24697Y21622D3*
X25697D3*
D187*
X16024Y23878D3*
Y23209D3*
Y22254D3*
Y21270D3*
Y20285D3*
Y19301D3*
Y18317D3*
Y17333D3*
Y16348D3*
D185*
X13169Y25630D3*
Y13819D3*
D183*
X11339Y25472D3*
X7815D3*
X6791D3*
D185*
X5827Y25630D3*
Y13819D3*
D182*
X14961Y24409D3*
Y15591D3*
D181*
X7559Y18957D3*
Y19390D3*
Y19823D3*
Y20256D3*
Y20689D3*
Y21122D3*
Y21555D3*
Y21988D3*
D180*
X6772Y19193D3*
Y21752D3*
D49*
X11811Y19409D3*
Y22047D3*
D178*
X12579Y19961D3*
G36*
X41190Y13542D2*
Y13804D1*
X41376Y13990D1*
X41638D1*
X41823Y13804D1*
Y13542D1*
X41638Y13357D1*
X41376D1*
X41190Y13542D1*
G37*
D176*
X41507Y14673D3*
G36*
X41190Y17479D2*
Y17741D1*
X41376Y17927D1*
X41638D1*
X41823Y17741D1*
Y17479D1*
X41638Y17294D1*
X41376D1*
X41190Y17479D1*
G37*
D176*
X41507Y18610D3*
D104*
X42157Y39488D3*
X43276Y40028D3*
X42157Y40567D3*
X43276Y41106D3*
X42157Y41646D3*
X43276Y42185D3*
X42157Y42724D3*
X43276Y43264D3*
X42157Y43803D3*
D174*
X42717Y46567D3*
Y36724D3*
D172*
X45610Y43827D3*
Y43281D3*
Y42736D3*
Y42191D3*
Y41646D3*
Y41100D3*
Y40555D3*
Y40010D3*
Y39465D3*
D171*
X45354Y44776D3*
D169*
Y46567D3*
D171*
Y38516D3*
D169*
Y36724D3*
D104*
X42157Y25488D3*
X43276Y26028D3*
X42157Y26567D3*
X43276Y27106D3*
X42157Y27646D3*
X43276Y28185D3*
X42157Y28724D3*
X43276Y29264D3*
X42157Y29803D3*
D174*
X42717Y32567D3*
Y22724D3*
D172*
X45610Y29827D3*
Y29281D3*
Y28736D3*
Y28191D3*
Y27646D3*
Y27100D3*
Y26555D3*
Y26010D3*
Y25465D3*
D171*
X45354Y30776D3*
D169*
Y32567D3*
D171*
Y24516D3*
D169*
Y22724D3*
G36*
X41190Y50550D2*
Y50812D1*
X41376Y50998D1*
X41638D1*
X41823Y50812D1*
Y50550D1*
X41638Y50365D1*
X41376D1*
X41190Y50550D1*
G37*
D176*
X41507Y51681D3*
G36*
X9204Y37064D2*
Y36802D1*
X9018Y36617D1*
X8756D1*
X8570Y36802D1*
Y37064D1*
X8756Y37250D1*
X9018D1*
X9204Y37064D1*
G37*
D176*
X8887Y35933D3*
Y34933D3*
Y33933D3*
D167*
X6024Y41457D3*
Y41201D3*
Y40945D3*
Y40689D3*
Y40433D3*
D165*
X5748Y42205D3*
Y39685D3*
D163*
X4783Y42559D3*
D161*
Y41280D3*
Y40610D3*
D163*
Y39331D3*
D159*
X4232Y41880D3*
Y40010D3*
G36*
X27503Y9204D2*
X27765D1*
X27950Y9018D1*
Y8756D1*
X27765Y8570D1*
X27503D1*
X27317Y8756D1*
Y9018D1*
X27503Y9204D1*
G37*
D176*
X28634Y8887D3*
X29634D3*
X30634D3*
D157*
X20630Y6299D3*
X21260D3*
X20945D3*
X21575D3*
D155*
X23199D3*
X19321D3*
D153*
Y4626D3*
X23199D3*
D157*
X21890Y6299D3*
D159*
X20394Y5424D3*
X22126D3*
D151*
X43110Y8661D3*
X7283Y60630D3*
X43110D3*
X7283Y8661D3*
D149*
X30709Y56417D3*
Y53819D3*
D147*
X41358Y58602D3*
X42106D3*
X41732Y59508D3*
D145*
X9508Y29547D3*
Y30295D3*
X8602Y29921D3*
D215*
X28720Y18110D3*
X27972D3*
X31870D3*
X31122D3*
G36*
X22106Y41654D2*
X22776D1*
Y41063D1*
X22106D1*
Y41654D1*
G37*
G36*
Y42402D2*
X22776D1*
Y41811D1*
X22106D1*
Y42402D1*
G37*
G36*
X23563Y41063D2*
X22894D1*
Y41654D1*
X23563D1*
Y41063D1*
G37*
G36*
Y41811D2*
X22894D1*
Y42402D1*
X23563D1*
Y41811D1*
G37*
G36*
X20653Y39662D2*
X20180Y39189D1*
X19763Y39607D1*
X20236Y40080D1*
X20653Y39662D1*
G37*
G36*
X21182Y39133D2*
X20709Y38660D1*
X20291Y39078D1*
X20765Y39551D1*
X21182Y39133D1*
G37*
D215*
X37776Y24409D3*
X37028D3*
X34665D3*
X35413D3*
X37028Y25984D3*
X37776D3*
X35413D3*
X34665D3*
X35846Y22835D3*
X36594D3*
D217*
X33071Y20098D3*
Y20846D3*
D215*
X38996Y9449D3*
X39744D3*
X38996Y12598D3*
X39744D3*
X32697Y22835D3*
X33445D3*
X36634Y11024D3*
X37382D3*
D217*
X33071Y17736D3*
Y18484D3*
D215*
X32657Y26772D3*
X31909D3*
X35846Y18110D3*
X36594D3*
D217*
X29921Y27972D3*
Y28720D3*
D215*
X31909Y29921D3*
X32657D3*
X39783Y21260D3*
X40531D3*
Y19685D3*
X39783D3*
X34232Y45669D3*
X33484D3*
X38957Y44882D3*
X38209D3*
X34232D3*
X33484D3*
X33445Y40945D3*
X32697D3*
Y39370D3*
X33445D3*
X35846Y37795D3*
X36594D3*
D217*
X39370Y57067D3*
Y56319D3*
X37795D3*
Y57067D3*
D215*
X45256Y57480D3*
X44508D3*
D217*
X38583Y56319D3*
Y57067D3*
D189*
X33209Y59055D3*
D143*
X28209D3*
D215*
X9075Y48031D3*
X9823D3*
X9075Y45276D3*
X9823D3*
D217*
X11024Y30295D3*
Y29547D3*
D215*
X9075Y48819D3*
X9823D3*
X9075Y46063D3*
X9823D3*
X9075Y49606D3*
X9823D3*
X9075Y10630D3*
X9823D3*
X9075Y11417D3*
X9823D3*
X16949Y13386D3*
X17697D3*
X16949Y11811D3*
X17697D3*
X19311Y13386D3*
X20059D3*
D217*
X25591Y5925D3*
Y6673D3*
X24803Y5925D3*
Y6673D3*
X17323Y5925D3*
Y6673D3*
D141*
X31004Y13976D3*
Y14961D3*
Y15945D3*
X28839D3*
Y14961D3*
Y13976D3*
X35138Y35630D3*
Y34646D3*
Y33661D3*
X37303D3*
Y34646D3*
Y35630D3*
D182*
X5807Y56102D3*
Y58858D3*
D139*
X4823Y56594D3*
Y58366D3*
D182*
X5807Y51378D3*
Y54134D3*
D139*
X4823Y51870D3*
Y53642D3*
D182*
X5807Y27756D3*
Y30512D3*
D139*
X4823Y28248D3*
Y30020D3*
D137*
X23720Y32402D3*
X23917D3*
X24114D3*
X24311D3*
X24508D3*
X24705D3*
X24902D3*
X25098D3*
X25295D3*
X25492D3*
X25689D3*
X25886D3*
X26083D3*
X26280D3*
X26476D3*
X26673D3*
D135*
X27441Y33169D3*
Y33366D3*
Y33563D3*
Y33760D3*
Y33957D3*
Y34154D3*
Y34350D3*
Y34547D3*
Y34744D3*
Y34941D3*
Y35138D3*
Y35335D3*
Y35531D3*
Y35728D3*
Y35925D3*
Y36122D3*
D137*
X26673Y36890D3*
X26476D3*
X26280D3*
X26083D3*
X25886D3*
X25689D3*
X25492D3*
X25295D3*
X25098D3*
X24902D3*
X24705D3*
X24508D3*
X24311D3*
X24114D3*
X23917D3*
X23720D3*
D135*
X22953Y36122D3*
Y35925D3*
Y35728D3*
Y35531D3*
Y35335D3*
Y35138D3*
Y34941D3*
Y34744D3*
Y34547D3*
Y34350D3*
Y34154D3*
Y33957D3*
Y33760D3*
Y33563D3*
Y33366D3*
Y33169D3*
D78*
X17756Y44862D3*
Y44606D3*
Y44350D3*
Y44094D3*
Y43839D3*
Y43583D3*
Y43327D3*
X20039D3*
Y43583D3*
Y43839D3*
Y44094D3*
Y44350D3*
Y44606D3*
Y44862D3*
D132*
X13386Y49154D3*
Y61083D3*
D131*
X35157Y29096D3*
Y28596D3*
Y28096D3*
Y27596D3*
X37283D3*
Y28096D3*
Y28596D3*
Y29096D3*
D129*
X14567Y36467D3*
X14764D3*
X14961D3*
X15157D3*
X15354D3*
D127*
X15502Y36811D3*
Y37008D3*
Y37205D3*
D129*
X15354Y37549D3*
X15157D3*
X14961D3*
X14764D3*
X14567D3*
D127*
X14419Y37205D3*
Y37008D3*
Y36811D3*
D83*
X31851Y25453D3*
Y25197D3*
Y24941D3*
X32717D3*
Y25453D3*
D131*
X35157Y21222D3*
Y20722D3*
Y20222D3*
Y19722D3*
X37283D3*
Y20222D3*
Y20722D3*
Y21222D3*
D125*
X32815Y27972D3*
Y28346D3*
Y28720D3*
X31752D3*
Y27972D3*
D123*
X34720Y44020D3*
D139*
Y43020D3*
Y42020D3*
Y41020D3*
X37720D3*
Y42020D3*
Y43020D3*
Y44020D3*
D123*
X44957Y34646D3*
D139*
X45957D3*
D121*
X36220Y39764D3*
X35846Y38976D3*
X36594D3*
D119*
X36299Y54734D3*
Y54990D3*
Y55246D3*
Y55502D3*
X34567D3*
Y55246D3*
Y54990D3*
Y54734D3*
D117*
X35433Y55118D3*
D115*
X44882Y56063D3*
Y54173D3*
D113*
X33152Y48031D3*
D111*
X36043Y47126D3*
Y48937D3*
Y48031D3*
D113*
X24491D3*
D111*
X27382Y47126D3*
Y48937D3*
Y48031D3*
D109*
X19872Y11884D3*
Y11628D3*
Y11372D3*
Y11116D3*
Y10860D3*
Y10604D3*
Y10348D3*
Y10093D3*
Y9837D3*
Y9581D3*
Y9325D3*
Y9069D3*
Y8813D3*
Y8557D3*
X22648D3*
Y8813D3*
Y9069D3*
Y9325D3*
Y9581D3*
Y9837D3*
Y10093D3*
Y10348D3*
Y10604D3*
Y10860D3*
Y11116D3*
Y11372D3*
Y11628D3*
Y11884D3*
G36*
X21528Y38648D2*
X22002Y39122D1*
X22586Y38537D1*
X22113Y38064D1*
X21528Y38648D1*
G37*
G36*
X20721Y37841D2*
X21194Y38314D1*
X21779Y37730D1*
X21306Y37256D1*
X20721Y37841D1*
G37*
D108*
X25748Y38858D3*
Y39882D3*
X25039D3*
Y38858D3*
D106*
X14173Y45453D3*
Y44311D3*
M02*
